<svg width="320" height="320" viewBox="0 0 320 320" fill="currentColor" xmlns="http://www.w3.org/2000/svg">
<path fill-rule="evenodd" clip-rule="evenodd" d="M0 160V320H30.2006H60.4023L60.1048 311.751L59.8083 303.502L38.08 303.232L16.3507 302.962L16.6103 160.245L16.869 17.5284L38.6351 17.2584L60.4013 16.9884L60.1048 8.75917L59.8083 0.529949L29.9042 0.264975L0 0V160ZM259.503 8.11724C259.32 12.5648 259.362 16.3895 259.596 16.6164C259.83 16.8434 269.606 17.0284 281.321 17.0284H302.62V160.015V303.002H281.15H259.681V311.501V320H289.84H320V160.015V0.029996H289.918H259.836L259.503 8.11724ZM73.7523 48.0545C65.005 49.8293 56.3588 57.1586 53.1486 65.5219C52.5158 67.1707 51.9852 71.7143 51.9698 75.6199C51.9371 83.8301 54.1516 89.1596 60.1723 95.356C68.0107 103.423 79.5123 106.01 90.1143 102.09C96.6104 99.6887 104.312 92.4963 107.076 86.2509C109.598 80.5544 109.276 69.6265 106.417 63.82C103.796 58.4975 96.6063 51.5472 91.611 49.5054C86.9919 47.6175 79.0768 46.9746 73.7523 48.0545ZM152.332 48.3255C143.672 50.7242 135.498 58.0336 132.744 65.8418C130.701 71.6333 131.096 81.7843 133.567 87.0218C136.181 92.5603 141.846 98.3228 147.533 101.227C153.212 104.125 165.421 104.313 170.735 101.584C182.186 95.704 187.224 88.5167 187.9 77.0958C188.466 67.5417 185.931 60.9963 179.378 55.0898C171.845 48.2985 161.642 45.7467 152.332 48.3255ZM231.875 48.3765C224.802 50.3103 219.276 54.3349 214.953 60.7013C211.226 66.1928 211.118 66.6037 211.122 75.4359C211.126 85.35 212.087 88.0457 217.947 94.5721C223.287 100.522 230.241 103.41 239.233 103.416C244.704 103.42 247.926 102.895 250.479 101.584C265.019 94.1172 270.964 80.6554 266.154 66.0888C261.739 52.7161 245.913 44.5388 231.875 48.3765ZM74.1214 132.937C68.3716 134.489 65.9445 135.794 61.2284 139.869C46.3959 152.684 49.464 177.182 66.9505 185.55C86.8079 195.052 108.602 182.009 108.78 160.515C108.849 152.149 106.478 146.368 100.688 140.784C93.6547 133.999 82.4435 130.688 74.1214 132.937ZM151.167 133.525C145.263 135.378 136.819 142.666 134.063 148.288C127.246 162.195 133.036 178.999 146.947 185.681C158.833 191.389 172.801 188.647 181.3 178.936C185.893 173.688 188.121 167.342 188.093 159.587C188.025 141.415 168.945 127.948 151.167 133.525ZM230.242 133.85C219.035 137.762 211.755 146.611 210.871 157.394C209.426 174.993 221.423 188.379 238.722 188.473C268.82 188.637 279.149 149.787 252.745 135.731C245.797 132.033 237.449 131.335 230.242 133.85ZM72.5817 217.884C64.504 220.475 56.2157 227.945 53.716 234.884C51.5241 240.971 51.7122 251.486 54.1056 256.643C58.972 267.123 68.6824 273.013 81.0612 272.994C106.045 272.956 118.354 242.363 100.285 225.214C97.9773 223.023 94.3836 220.439 92.298 219.471C88.1084 217.528 76.5843 216.6 72.5817 217.884ZM151.189 218.329C130.304 225.974 124.373 249.348 139.386 264.843C145.065 270.705 149.679 272.457 159.489 272.482C169.421 272.507 173.117 271.161 179.375 265.237C193.574 251.796 189.966 228.711 172.268 219.774C167.139 217.185 156.339 216.444 151.189 218.329ZM230 218.546C224.192 220.296 217.57 225.773 213.923 231.842C211.458 235.944 211.119 237.536 211.123 245.007C211.129 254.731 212.647 258.699 218.688 264.787C224.674 270.82 229.159 272.504 239.233 272.504C249.083 272.504 253.119 271.056 259.106 265.368C266.946 257.921 269.59 247.383 266.364 236.436C264.965 231.69 263.531 229.474 259.171 225.324C251.034 217.576 240.972 215.238 230 218.546Z" />
</svg>
